<svg width="3129" height="957" viewBox="0 0 3129 957" fill="none" xmlns="http://www.w3.org/2000/svg">
<path d="M1264.06 343.421V662H1193.42V343.421H1264.06ZM1360.1 343.421V398.826H1097.85V343.421H1360.1ZM1654.47 343.421V535.03C1654.47 567.35 1650.47 593.359 1642.46 613.059C1634.46 632.451 1621.23 646.61 1602.76 655.536C1584.6 664.155 1560.28 668.464 1529.81 668.464C1497.49 668.464 1471.63 664.155 1452.24 655.536C1432.85 646.61 1418.84 632.451 1410.22 613.059C1401.61 593.359 1397.3 567.35 1397.3 535.03V343.421H1467.94V535.03C1467.94 555.037 1469.63 570.735 1473.02 582.124C1476.71 593.205 1482.87 601.054 1491.48 605.671C1500.1 610.289 1511.65 612.597 1526.11 612.597C1540.58 612.597 1551.97 610.289 1560.28 605.671C1568.9 601.054 1574.9 593.205 1578.29 582.124C1581.98 570.735 1583.83 555.037 1583.83 535.03V343.421H1654.47ZM1838.94 338.804C1866.95 338.804 1889.58 341.728 1906.81 347.576C1924.36 353.117 1937.13 362.812 1945.14 376.664C1953.45 390.207 1957.6 409.137 1957.6 433.454C1957.6 448.229 1955.6 461.31 1951.6 472.699C1947.91 483.78 1941.6 492.707 1932.67 499.478C1923.74 506.25 1911.58 510.559 1896.19 512.406V514.715C1901.74 515.638 1907.43 517.793 1913.28 521.179C1919.43 524.565 1925.13 529.643 1930.36 536.415C1935.59 542.879 1939.44 551.652 1941.9 562.733L1969.61 662H1895.27L1870.8 565.041C1868.03 554.576 1863.87 547.342 1858.33 543.341C1853.1 539.339 1845.71 537.339 1836.17 537.339C1815.24 537.339 1797.54 537.339 1783.08 537.339C1768.92 537.031 1756.91 536.723 1747.06 536.415C1737.52 536.107 1728.9 535.799 1721.21 535.492L1722.59 484.242H1837.56C1849.87 484.242 1859.57 483.011 1866.65 480.548C1874.03 477.778 1879.11 473.007 1881.88 466.235C1884.96 459.464 1886.5 450.076 1886.5 438.071C1886.5 425.759 1884.96 416.371 1881.88 409.907C1879.11 403.135 1874.03 398.518 1866.65 396.056C1859.57 393.285 1849.87 391.9 1837.56 391.9C1808.62 391.9 1784.15 392.054 1764.15 392.362C1744.14 392.67 1730.44 393.131 1723.05 393.747L1716.13 343.421C1729.06 341.882 1741.21 340.804 1752.6 340.189C1763.99 339.573 1776.46 339.265 1790 339.265C1803.55 338.957 1819.86 338.804 1838.94 338.804ZM1785.85 343.421V662H1716.13V343.421H1785.85ZM2085.71 343.421V662H2015.53V343.421H2085.71ZM2255.15 337.418C2270.85 337.418 2287.93 338.342 2306.4 340.189C2324.87 341.728 2342.88 345.114 2360.42 350.346L2355.8 396.979C2342.26 396.671 2326.41 396.363 2308.25 396.056C2290.09 395.748 2272.24 395.594 2254.69 395.594C2246.07 395.594 2238.68 395.902 2232.53 396.517C2226.68 396.825 2221.91 398.056 2218.22 400.211C2214.52 402.058 2211.91 404.982 2210.37 408.983C2208.83 412.985 2208.06 418.525 2208.06 425.605C2208.06 436.378 2210.52 444.227 2215.44 449.152C2220.68 454.077 2229.45 458.54 2241.76 462.542L2303.17 482.395C2328.72 491.014 2346.42 502.71 2356.27 517.485C2366.12 532.26 2371.04 551.652 2371.04 575.66C2371.04 593.821 2368.89 608.903 2364.58 620.908C2360.27 632.912 2353.5 642.3 2344.26 649.072C2335.03 655.844 2322.87 660.615 2307.79 663.385C2292.7 666.463 2274.24 668.002 2252.38 668.002C2241.92 668.002 2226.99 667.233 2207.6 665.694C2188.2 664.462 2166.04 661.077 2141.11 655.536L2145.73 605.671C2163.89 605.979 2179.59 606.441 2192.82 607.057C2206.36 607.364 2217.91 607.672 2227.45 607.98C2236.99 607.98 2245.3 607.98 2252.38 607.98C2264.69 607.98 2274.24 607.211 2281.01 605.671C2288.09 604.132 2293.01 601.054 2295.78 596.437C2298.55 591.82 2299.94 585.202 2299.94 576.584C2299.94 569.196 2298.86 563.348 2296.71 559.039C2294.86 554.422 2291.63 550.882 2287.01 548.42C2282.7 545.649 2276.7 543.187 2269 541.032L2204.36 518.87C2180.05 509.944 2162.81 498.247 2152.65 483.78C2142.49 469.313 2137.42 450.229 2137.42 426.528C2137.42 408.06 2139.57 393.131 2143.88 381.743C2148.5 370.046 2155.42 360.966 2164.66 354.502C2174.2 348.038 2186.36 343.575 2201.13 341.112C2216.21 338.65 2234.22 337.418 2255.15 337.418ZM2746.84 343.421C2763.46 343.421 2772.08 352.039 2772.7 369.276L2784.7 662H2719.6L2708.98 397.902H2700.67L2649.42 596.437C2646.65 611.212 2637.42 618.599 2621.72 618.599H2577.4C2561.7 618.599 2552.16 611.212 2548.77 596.437L2497.52 397.902H2489.67L2479.98 662H2414.41L2426.42 369.276C2427.03 352.039 2435.81 343.421 2452.73 343.421H2518.76C2533.84 343.421 2543.08 350.962 2546.46 366.044L2587.55 526.258C2589.4 533.645 2590.94 541.186 2592.17 548.881C2593.4 556.269 2594.79 563.81 2596.33 571.505H2602.33C2603.87 563.81 2605.25 556.269 2606.48 548.881C2608.02 541.186 2609.56 533.491 2611.1 525.796L2651.73 366.044C2654.81 350.962 2664.04 343.421 2679.43 343.421H2746.84ZM2969.87 336.957C2995.11 336.957 3016.5 339.727 3034.04 345.268C3051.59 350.5 3065.59 359.427 3076.06 372.047C3086.83 384.359 3094.68 401.288 3099.61 422.835C3104.53 444.073 3106.99 470.699 3106.99 502.71C3106.99 534.722 3104.53 561.501 3099.61 583.048C3094.68 604.286 3086.83 621.216 3076.06 633.836C3065.59 646.148 3051.59 655.074 3034.04 660.615C3016.5 665.848 2995.11 668.464 2969.87 668.464C2944.63 668.464 2923.23 665.848 2905.69 660.615C2888.14 655.074 2873.99 646.148 2863.21 633.836C2852.44 621.216 2844.59 604.286 2839.66 583.048C2834.74 561.501 2832.28 534.722 2832.28 502.71C2832.28 470.699 2834.74 444.073 2839.66 422.835C2844.59 401.288 2852.44 384.359 2863.21 372.047C2873.99 359.427 2888.14 350.5 2905.69 345.268C2923.23 339.727 2944.63 336.957 2969.87 336.957ZM2969.87 392.824C2953.55 392.824 2940.78 396.056 2931.54 402.519C2922.62 408.983 2916.15 420.218 2912.15 436.224C2908.46 451.922 2906.61 474.084 2906.61 502.71C2906.61 531.028 2908.46 553.191 2912.15 569.196C2916.15 585.202 2922.62 596.437 2931.54 602.901C2940.78 609.365 2953.55 612.597 2969.87 612.597C2985.87 612.597 2998.34 609.365 3007.27 602.901C3016.5 596.437 3022.96 585.202 3026.66 569.196C3030.66 553.191 3032.66 531.028 3032.66 502.71C3032.66 474.084 3030.66 451.922 3026.66 436.224C3022.96 420.218 3016.5 408.983 3007.27 402.519C2998.34 396.056 2985.87 392.824 2969.87 392.824Z" fill="white"/>
<path d="M471.427 0C646.584 31.9432 804.262 125.448 1015.15 31.1109C1012.4 40.668 1009.73 50.2538 1007.03 59.8109H1057.25L1061.3 45.4609H1090L832.044 956.688H803.344L918.431 550.094H868.206C865.078 561.287 861.863 572.423 858.735 583.616C647.875 677.896 490.169 584.391 315.098 552.448C367.16 368.308 419.308 184.14 471.427 0ZM808.854 100.709C749.445 99.3883 693.135 87.1334 637.486 72.4964C622.533 125.104 607.667 177.739 592.743 230.347C648.363 244.984 704.702 257.239 764.168 258.559C779.063 205.923 793.988 153.316 808.854 100.709ZM924.515 528.569L1051.14 81.336H1000.91C958.668 230.404 916.508 379.501 874.29 528.569H924.515ZM884.134 392.301C898.714 340.871 913.322 289.469 927.816 238.038C869.096 259.592 814.422 266.882 762.13 265.705C747.579 317.136 733 368.538 718.478 419.968C770.712 421.145 825.414 413.855 884.134 392.301ZM497.315 567.573C552.936 582.238 609.245 594.464 668.712 595.756C683.607 543.12 698.502 490.513 713.426 437.906C654.046 436.585 597.708 424.33 542.001 409.693C527.106 462.358 512.182 514.937 497.315 567.573ZM400.079 353.384C449.702 364.146 498.061 378.898 547.052 391.756C561.632 340.325 576.211 288.924 590.705 237.493C541.743 224.607 493.268 209.884 443.761 199.121C429.238 250.552 414.659 301.953 400.079 353.384ZM423.384 89.659C420.628 99.2161 417.959 108.802 415.261 118.359C392.674 114.972 369.8 112.763 346.439 112.246C331.515 164.853 316.677 217.489 301.753 270.096C325.086 270.613 347.988 272.823 370.518 276.209C353.556 335.992 336.623 395.803 319.69 455.585C297.161 452.198 274.229 449.988 250.925 449.472C235.972 502.079 221.105 554.715 206.153 607.322C265.562 608.614 321.9 620.897 377.607 635.477C381.08 623.078 384.581 610.795 388.054 598.425C445.97 613.607 503.084 631.43 562.206 642.193C555.978 664.177 549.75 686.075 543.579 708.002C368.48 676.059 210.745 582.554 0.000133025 676.834C52.0621 492.694 104.268 308.526 156.387 124.357C254.541 80.5324 341.1 77.2893 423.384 89.659ZM90.2905 459.201C149.011 437.647 203.656 430.357 255.947 431.534C270.527 380.104 285.107 328.702 299.6 277.271C247.366 276.095 192.635 283.384 133.972 304.938C119.45 356.369 104.841 407.771 90.2905 459.201Z" fill="white"/>
</svg>
